<svg width="690" height="462" viewBox="0 0 690 462" fill="none" xmlns="http://www.w3.org/2000/svg">
<path d="M193 462V400.776C204.59 399.998 214.522 397.207 222.796 392.402C231.071 387.602 239.526 382.548 248.162 377.242C256.794 371.94 266.335 367.12 276.785 362.781C287.239 358.439 300.179 356.268 315.607 356.268C331.038 356.268 344.072 358.568 354.709 363.166C365.349 367.769 374.985 372.888 383.618 378.525C392.25 384.161 401.04 389.279 409.987 393.878C418.939 398.476 429.414 400.776 441.412 400.776C453.785 400.776 464.351 398.439 473.112 393.767C481.877 389.09 490.575 383.971 499.207 378.408C507.839 372.849 517.542 367.769 528.315 363.166C539.091 358.568 552.199 356.268 567.639 356.268C583.074 356.268 595.975 358.439 606.344 362.781C616.708 367.12 626.138 371.979 634.634 377.359C643.134 382.735 651.534 387.788 659.836 392.519C668.137 397.246 678.192 399.998 690 400.776V462C675.433 461.483 663.146 458.931 653.14 454.344C643.138 449.761 633.807 444.805 625.147 439.475C616.488 434.15 607.78 429.252 599.023 424.781C590.266 420.311 579.727 418.076 567.405 418.076C555.34 418.076 544.863 420.375 535.974 424.974C527.089 429.576 518.25 434.604 509.458 440.058C500.671 445.516 490.97 450.538 480.357 455.125C469.747 459.708 456.78 462 441.453 462C426.127 462 413.202 459.708 402.678 455.125C392.151 450.538 382.466 445.516 373.623 440.058C364.777 434.604 355.898 429.576 346.985 424.974C338.069 420.375 327.528 418.076 315.361 418.076C303.195 418.076 292.734 420.311 283.977 424.781C275.22 429.252 266.539 434.15 257.934 439.475C249.329 444.805 239.983 449.761 229.895 454.344C219.807 458.931 207.509 461.483 193 462ZM193 343.44V281.633C204.59 280.855 214.522 278.109 222.796 273.394C231.071 268.678 239.526 263.722 248.162 258.525C256.794 253.327 266.335 248.558 276.785 244.216C287.239 239.878 300.179 237.708 315.607 237.708C331.038 237.708 344.072 240.008 354.709 244.606C365.349 249.205 374.985 254.225 383.618 259.668C392.25 265.11 401.04 270.132 409.987 274.735C418.939 279.333 429.414 281.633 441.412 281.633C453.785 281.633 464.351 279.341 473.112 274.758C481.877 270.171 490.575 265.149 499.207 259.691C507.839 254.233 517.542 249.205 528.315 244.606C539.091 240.008 552.053 237.708 567.201 237.708C583.033 237.708 596.106 239.878 606.419 244.216C616.733 248.558 626.138 253.32 634.634 258.501C643.134 263.687 651.534 268.643 659.836 273.37C668.137 278.101 678.192 280.855 690 281.633V343.44C675.433 342.402 663.146 339.481 653.14 334.676C643.138 329.872 633.807 324.884 625.147 319.714C616.488 314.54 607.78 309.782 599.023 305.44C590.266 301.102 579.777 298.933 567.557 298.933C555.332 298.933 544.793 301.258 535.939 305.907C527.081 310.556 518.223 315.695 509.365 321.324C500.507 326.952 490.818 332.045 480.298 336.601C469.779 341.16 456.855 343.44 441.529 343.44C426.203 343.44 413.249 341.123 402.667 336.49C392.088 331.856 382.417 326.783 373.652 321.271C364.888 315.759 356.009 310.657 347.014 305.965C338.016 301.277 327.471 298.933 315.379 298.933C303.283 298.933 292.837 301.168 284.041 305.638C275.242 310.109 266.539 315.059 257.934 320.49C249.329 325.924 239.983 330.978 229.895 335.65C219.807 340.327 207.509 342.923 193 343.44ZM193 224.88V163.073C204.547 162.812 214.47 160.325 222.767 155.609C231.061 150.894 239.526 145.874 248.162 140.548C256.794 135.219 266.335 130.319 276.785 125.848C287.239 121.378 300.179 119.143 315.607 119.143C331.038 119.143 344.072 121.444 354.709 126.047C365.349 130.645 374.985 135.666 383.618 141.108C392.25 146.55 401.04 151.57 409.987 156.169C418.939 160.772 429.414 163.073 441.412 163.073C453.785 163.073 464.351 160.779 473.112 156.192C481.877 151.609 490.575 146.589 499.207 141.131C507.839 135.673 517.542 130.645 528.315 126.047C539.091 121.444 552.053 119.143 567.201 119.143C583.033 119.143 596.106 121.378 606.419 125.848C616.733 130.319 626.138 135.211 634.634 140.525C643.134 145.839 651.534 150.859 659.836 155.586C668.137 160.317 678.192 162.812 690 163.073V224.88C675.433 224.36 663.146 221.763 653.14 217.09C643.138 212.414 633.807 207.361 625.147 201.93C616.488 196.496 607.78 191.543 599.023 187.073C590.266 182.603 579.727 180.367 567.405 180.367C555.34 180.367 544.863 182.704 535.974 187.376C527.089 192.049 518.223 197.129 509.377 202.618C500.527 208.111 490.838 213.193 480.31 217.866C469.779 222.542 456.85 224.88 441.523 224.88C426.201 224.88 413.249 222.564 402.667 217.93C392.088 213.296 382.417 208.224 373.652 202.711C364.888 197.195 356.009 192.093 347.014 187.405C338.016 182.713 327.471 180.367 315.379 180.367C303.283 180.367 292.837 182.603 284.041 187.073C275.242 191.543 266.539 196.496 257.934 201.93C249.329 207.361 239.983 212.414 229.895 217.09C219.807 221.763 207.509 224.36 193 224.88ZM193 106.315V44.5073C204.59 43.7298 214.522 40.9407 222.796 36.1399C231.071 31.3353 239.526 26.2799 248.162 20.9737C256.794 15.6715 266.327 10.8513 276.762 6.51311C287.196 2.17103 300.115 0 315.519 0C330.927 0 343.971 2.36539 354.65 7.0962C365.33 11.8231 374.985 16.9407 383.618 22.449C392.25 27.9572 401.04 33.0107 409.987 37.6093C418.939 42.208 429.414 44.5073 441.412 44.5073C453.785 44.5073 464.351 42.171 473.112 37.4985C481.877 32.8222 490.604 27.7687 499.295 22.3382C507.985 16.9038 517.69 11.8231 528.408 7.0962C539.123 2.36539 552.053 0 567.201 0C583.033 0 596.106 2.17103 606.419 6.51311C616.733 10.8513 626.138 15.7104 634.634 21.0904C643.134 26.4665 651.534 31.5199 659.836 36.2507C668.137 40.9776 678.192 43.7298 690 44.5073V106.315C675.433 105.798 663.146 103.201 653.14 98.5248C643.138 93.8523 633.807 88.7988 625.147 83.3644C616.488 77.9339 607.78 72.9835 599.023 68.5131C590.266 64.0428 579.727 61.8076 567.405 61.8076C555.34 61.8076 544.863 64.1438 535.974 68.8163C527.089 73.4849 518.223 78.5656 509.377 84.0583C500.527 89.5471 490.838 94.6297 480.31 99.3061C469.779 103.979 456.85 106.315 441.523 106.315C426.201 106.315 413.249 103.998 402.667 99.3644C392.088 94.7347 382.417 89.6618 373.652 84.1458C364.888 78.6336 356.009 73.5335 347.014 68.8455C338.016 64.1535 327.471 61.8076 315.379 61.8076C303.283 61.8076 292.837 64.0428 284.041 68.5131C275.242 72.9835 266.539 77.9339 257.934 83.3644C249.329 88.7988 239.983 93.8523 229.895 98.5248C219.807 103.201 207.509 105.798 193 106.315Z" fill="#F6F6F6"/>
<path d="M-304 462V400.776C-292.41 399.998 -282.478 397.207 -274.204 392.402C-265.929 387.602 -257.474 382.548 -248.838 377.242C-240.206 371.94 -230.665 367.12 -220.215 362.781C-209.761 358.439 -196.821 356.268 -181.393 356.268C-165.962 356.268 -152.928 358.568 -142.291 363.166C-131.651 367.769 -122.015 372.888 -113.382 378.525C-104.75 384.161 -95.9602 389.279 -87.0127 393.878C-78.0614 398.476 -67.5863 400.776 -55.5875 400.776C-43.2152 400.776 -32.6487 398.439 -23.888 393.767C-15.1234 389.09 -6.42505 383.971 2.20718 378.408C10.8394 372.849 20.542 367.769 31.3148 363.166C42.0915 358.568 55.1994 356.268 70.6385 356.268C86.0739 356.268 98.9755 358.439 109.344 362.781C119.708 367.12 129.138 371.979 137.634 377.359C146.134 382.735 154.534 387.788 162.836 392.519C171.137 397.246 181.192 399.998 193 400.776V462C178.433 461.483 166.146 458.931 156.14 454.344C146.138 449.761 136.807 444.805 128.147 439.475C119.488 434.15 110.78 429.252 102.023 424.781C93.2661 420.311 82.7268 418.076 70.405 418.076C58.3401 418.076 47.8632 420.375 38.974 424.974C30.0888 429.576 21.2503 434.604 12.4585 440.058C3.67056 445.516 -6.03 450.538 -16.6432 455.125C-27.2526 459.708 -40.2204 462 -55.5467 462C-70.873 462 -83.798 459.708 -94.3217 455.125C-104.849 450.538 -114.534 445.516 -123.377 440.058C-132.223 434.604 -141.102 429.576 -150.015 424.974C-158.931 420.375 -169.472 418.076 -181.639 418.076C-193.805 418.076 -204.266 420.311 -213.023 424.781C-221.78 429.252 -230.461 434.15 -239.066 439.475C-247.671 444.805 -257.017 449.761 -267.105 454.344C-277.193 458.931 -289.491 461.483 -304 462ZM-304 343.44V281.633C-292.41 280.855 -282.478 278.109 -274.204 273.394C-265.929 268.678 -257.474 263.722 -248.838 258.525C-240.206 253.327 -230.665 248.558 -220.215 244.216C-209.761 239.878 -196.821 237.708 -181.393 237.708C-165.962 237.708 -152.928 240.008 -142.291 244.606C-131.651 249.205 -122.015 254.225 -113.382 259.668C-104.75 265.11 -95.9602 270.132 -87.0127 274.735C-78.0614 279.333 -67.5863 281.633 -55.5875 281.633C-43.2152 281.633 -32.6487 279.341 -23.888 274.758C-15.1234 270.171 -6.42505 265.149 2.20718 259.691C10.8394 254.233 20.542 249.205 31.3148 244.606C42.0915 240.008 55.0534 237.708 70.2007 237.708C86.033 237.708 99.1059 239.878 109.419 244.216C119.733 248.558 129.138 253.32 137.634 258.501C146.134 263.687 154.534 268.643 162.836 273.37C171.137 278.101 181.192 280.855 193 281.633V343.44C178.433 342.402 166.146 339.481 156.14 334.676C146.138 329.872 136.807 324.884 128.147 319.714C119.488 314.54 110.78 309.782 102.023 305.44C93.2661 301.102 82.7774 298.933 70.5568 298.933C58.3324 298.933 47.7931 301.258 38.939 305.907C30.081 310.556 21.2231 315.695 12.3651 321.324C3.50711 326.952 -6.18176 332.045 -16.7016 336.601C-27.2214 341.16 -40.1445 343.44 -55.4708 343.44C-70.7971 343.44 -83.7513 341.123 -94.3334 336.49C-104.912 331.856 -114.583 326.783 -123.348 321.271C-132.112 315.759 -140.991 310.657 -149.986 305.965C-158.984 301.277 -169.529 298.933 -181.621 298.933C-193.717 298.933 -204.163 301.168 -212.959 305.638C-221.758 310.109 -230.461 315.059 -239.066 320.49C-247.671 325.924 -257.017 330.978 -267.105 335.65C-277.193 340.327 -289.491 342.923 -304 343.44ZM-304 224.88V163.073C-292.453 162.812 -282.53 160.325 -274.233 155.609C-265.939 150.894 -257.474 145.874 -248.838 140.548C-240.206 135.219 -230.665 130.319 -220.215 125.848C-209.761 121.378 -196.821 119.143 -181.393 119.143C-165.962 119.143 -152.928 121.444 -142.291 126.047C-131.651 130.645 -122.015 135.666 -113.382 141.108C-104.75 146.55 -95.9602 151.57 -87.0127 156.169C-78.0614 160.772 -67.5863 163.073 -55.5875 163.073C-43.2152 163.073 -32.6487 160.779 -23.888 156.192C-15.1234 151.609 -6.42505 146.589 2.20718 141.131C10.8394 135.673 20.542 130.645 31.3148 126.047C42.0915 121.444 55.0534 119.143 70.2007 119.143C86.033 119.143 99.1059 121.378 109.419 125.848C119.733 130.319 129.138 135.211 137.634 140.525C146.134 145.839 154.534 150.859 162.836 155.586C171.137 160.317 181.192 162.812 193 163.073V224.88C178.433 224.36 166.146 221.763 156.14 217.09C146.138 212.414 136.807 207.361 128.147 201.93C119.488 196.496 110.78 191.543 102.023 187.073C93.2661 182.603 82.7268 180.367 70.405 180.367C58.3401 180.367 47.8632 182.704 38.974 187.376C30.0888 192.049 21.2231 197.129 12.3768 202.618C3.52658 208.111 -6.16235 213.193 -16.6899 217.866C-27.2214 222.542 -40.1503 224.88 -55.4766 224.88C-70.799 224.88 -83.7513 222.564 -94.3334 217.93C-104.912 213.296 -114.583 208.224 -123.348 202.711C-132.112 197.195 -140.991 192.093 -149.986 187.405C-158.984 182.713 -169.529 180.367 -181.621 180.367C-193.717 180.367 -204.163 182.603 -212.959 187.073C-221.758 191.543 -230.461 196.496 -239.066 201.93C-247.671 207.361 -257.017 212.414 -267.105 217.09C-277.193 221.763 -289.491 224.36 -304 224.88ZM-304 106.315V44.5073C-292.41 43.7298 -282.478 40.9407 -274.204 36.1399C-265.929 31.3353 -257.474 26.2799 -248.838 20.9737C-240.206 15.6715 -230.673 10.8513 -220.238 6.51311C-209.804 2.17103 -196.885 0 -181.481 0C-166.073 0 -153.029 2.36539 -142.35 7.0962C-131.67 11.8231 -122.015 16.9407 -113.382 22.449C-104.75 27.9572 -95.9602 33.0107 -87.0127 37.6093C-78.0614 42.208 -67.5863 44.5073 -55.5875 44.5073C-43.2152 44.5073 -32.6487 42.171 -23.888 37.4985C-15.1234 32.8222 -6.39584 27.7687 2.29477 22.3382C10.9854 16.9038 20.6898 11.8231 31.4082 7.0962C42.1226 2.36539 55.0534 0 70.2007 0C86.033 0 99.1059 2.17103 109.419 6.51311C119.733 10.8513 129.138 15.7104 137.634 21.0904C146.134 26.4665 154.534 31.5199 162.836 36.2507C171.137 40.9776 181.192 43.7298 193 44.5073V106.315C178.433 105.798 166.146 103.201 156.14 98.5248C146.138 93.8523 136.807 88.7988 128.147 83.3644C119.488 77.9339 110.78 72.9835 102.023 68.5131C93.2661 64.0428 82.7268 61.8076 70.405 61.8076C58.3401 61.8076 47.8632 64.1438 38.974 68.8163C30.0888 73.4849 21.2231 78.5656 12.3768 84.0583C3.52658 89.5471 -6.16235 94.6297 -16.6899 99.3061C-27.2214 103.979 -40.1503 106.315 -55.4766 106.315C-70.799 106.315 -83.7513 103.998 -94.3334 99.3644C-104.912 94.7347 -114.583 89.6618 -123.348 84.1458C-132.112 78.6336 -140.991 73.5335 -149.986 68.8455C-158.984 64.1535 -169.529 61.8076 -181.621 61.8076C-193.717 61.8076 -204.163 64.0428 -212.959 68.5131C-221.758 72.9835 -230.461 77.9339 -239.066 83.3644C-247.671 88.7988 -257.017 93.8523 -267.105 98.5248C-277.193 103.201 -289.491 105.798 -304 106.315Z" fill="#F6F6F6"/>
</svg>
