<svg width="1440" height="178" viewBox="0 0 1440 178" fill="none" xmlns="http://www.w3.org/2000/svg">
<path fill-rule="evenodd" clip-rule="evenodd" d="M1368.64 356.269C1384.07 356.269 1396.98 358.439 1407.34 362.781C1417.71 367.119 1427.14 371.978 1435.63 377.358C1444.13 382.734 1452.53 387.788 1460.84 392.519C1469.14 397.245 1479.19 399.998 1491 400.775V462C1476.43 461.483 1464.15 458.931 1454.14 454.344C1444.14 449.761 1434.81 444.805 1426.15 439.476C1417.49 434.15 1408.78 429.252 1400.02 424.781C1391.27 420.311 1380.73 418.076 1368.41 418.076C1356.34 418.076 1345.86 420.375 1336.97 424.974C1328.09 429.576 1319.25 434.605 1310.46 440.059C1301.67 445.516 1291.97 450.538 1281.36 455.125C1270.75 459.708 1257.78 462 1242.45 462C1227.13 462 1214.2 459.708 1203.68 455.125C1193.15 450.538 1183.47 445.516 1174.62 440.059C1165.78 434.605 1156.9 429.576 1147.99 424.974C1139.07 420.375 1128.53 418.076 1116.36 418.076C1104.2 418.076 1093.73 420.311 1084.98 424.781C1076.22 429.252 1067.54 434.15 1058.93 439.476C1050.33 444.805 1040.98 449.761 1030.9 454.344C1020.81 458.931 1008.51 461.483 994 462C979.433 461.483 967.146 458.931 957.14 454.344C947.138 449.761 937.807 444.805 929.147 439.476C920.488 434.15 911.779 429.252 903.022 424.781C894.266 420.311 883.727 418.076 871.405 418.076C859.34 418.076 848.863 420.375 839.974 424.974C831.089 429.576 822.25 434.605 813.458 440.059C804.67 445.516 794.969 450.538 784.356 455.125C773.747 459.708 760.779 462 745.453 462C730.127 462 717.202 459.708 706.679 455.125C696.151 450.538 686.465 445.516 677.623 440.059C668.777 434.605 659.898 429.576 650.985 424.974C642.069 420.375 631.527 418.076 619.361 418.076C607.195 418.076 596.734 420.311 587.978 424.781C579.221 429.252 570.54 434.15 561.935 439.476C553.33 444.805 543.983 449.761 533.896 454.344C523.808 458.931 511.509 461.483 497 462C482.433 461.483 470.146 458.931 460.14 454.344C450.138 449.761 440.807 444.805 432.147 439.476C423.488 434.15 414.779 429.252 406.022 424.781C397.266 420.311 386.727 418.076 374.405 418.076C362.34 418.076 351.863 420.375 342.974 424.974C334.089 429.576 325.25 434.605 316.458 440.059C307.67 445.516 297.969 450.538 287.356 455.125C276.747 459.708 263.779 462 248.453 462C233.127 462 220.202 459.708 209.679 455.125C199.151 450.538 189.465 445.516 180.623 440.059C171.777 434.605 162.898 429.576 153.985 424.974C145.069 420.375 134.527 418.076 122.361 418.076C110.195 418.076 99.7342 420.311 90.9775 424.781C82.2208 429.252 73.5396 434.15 64.9346 439.476C56.3297 444.805 46.9832 449.761 36.8955 454.344C26.8077 458.931 14.509 461.483 0 462V400.775C11.5901 399.998 21.5227 397.207 29.7969 392.402C38.071 387.602 46.5261 382.548 55.1621 377.242C63.7943 371.94 73.3354 367.119 83.7852 362.781C94.2387 358.439 107.179 356.269 122.606 356.269C138.038 356.269 151.072 358.567 161.709 363.166C172.349 367.769 181.986 372.888 190.618 378.524C199.25 384.161 208.04 389.279 216.987 393.878C225.939 398.476 236.414 400.775 248.412 400.775C260.784 400.775 271.352 398.439 280.112 393.767C288.877 389.09 297.575 383.971 306.207 378.408C314.839 372.849 324.542 367.769 335.314 363.166C346.091 358.567 359.199 356.269 374.639 356.269C390.074 356.269 402.976 358.439 413.344 362.781C423.708 367.119 433.138 371.978 441.634 377.358C450.134 382.734 458.535 387.788 466.836 392.519C475.137 397.245 485.192 399.998 497 400.775C508.59 399.998 518.523 397.207 526.797 392.402C535.071 387.602 543.526 382.548 552.162 377.242C560.794 371.94 570.335 367.119 580.785 362.781C591.239 358.439 604.179 356.269 619.606 356.269C635.038 356.269 648.072 358.567 658.709 363.166C669.349 367.769 678.986 372.888 687.618 378.524C696.25 384.161 705.04 389.279 713.987 393.878C722.939 398.476 733.414 400.775 745.412 400.775C757.784 400.775 768.352 398.439 777.112 393.767C785.877 389.09 794.575 383.971 803.207 378.408C811.839 372.849 821.542 367.769 832.314 363.166C843.091 358.567 856.199 356.269 871.639 356.269C887.074 356.269 899.976 358.439 910.344 362.781C920.708 367.119 930.138 371.978 938.634 377.358C947.134 382.734 955.535 387.788 963.836 392.519C972.137 397.245 982.192 399.998 994 400.775C1005.59 399.998 1015.52 397.207 1023.8 392.402C1032.07 387.602 1040.53 382.548 1049.16 377.242C1057.79 371.94 1067.34 367.119 1077.79 362.781C1088.24 358.439 1101.18 356.269 1116.61 356.269C1132.04 356.269 1145.07 358.567 1155.71 363.166C1166.35 367.769 1175.99 372.888 1184.62 378.524C1193.25 384.161 1202.04 389.279 1210.99 393.878C1219.94 398.476 1230.41 400.775 1242.41 400.775C1254.78 400.775 1265.35 398.439 1274.11 393.767C1282.88 389.09 1291.57 383.971 1300.21 378.408C1308.84 372.849 1318.54 367.769 1329.31 363.166C1340.09 358.567 1353.2 356.269 1368.64 356.269ZM1368.2 237.708C1384.03 237.708 1397.11 239.878 1407.42 244.216C1417.73 248.558 1427.14 253.319 1435.63 258.501C1444.13 263.687 1452.53 268.643 1460.84 273.37C1469.14 278.101 1479.19 280.855 1491 281.633V343.44C1476.43 342.403 1464.15 339.481 1454.14 334.677C1444.14 329.872 1434.81 324.884 1426.15 319.714C1417.49 314.54 1408.78 309.783 1400.02 305.44C1391.27 301.102 1380.78 298.933 1368.56 298.933C1356.33 298.933 1345.79 301.257 1336.94 305.906C1328.08 310.555 1319.22 315.695 1310.37 321.323C1301.51 326.952 1291.82 332.045 1281.3 336.601C1270.78 341.16 1257.86 343.44 1242.53 343.44C1227.2 343.44 1214.25 341.124 1203.67 336.49C1193.09 331.857 1183.42 326.784 1174.65 321.271C1165.89 315.759 1157.01 310.657 1148.01 305.965C1139.02 301.277 1128.47 298.933 1116.38 298.933C1104.28 298.933 1093.84 301.168 1085.04 305.639C1076.24 310.109 1067.54 315.06 1058.93 320.49C1050.33 325.925 1040.98 330.978 1030.9 335.65C1020.81 340.327 1008.51 342.923 994 343.44C979.433 342.403 967.146 339.481 957.14 334.677C947.137 329.872 937.807 324.884 929.147 319.714C920.488 314.54 911.779 309.783 903.022 305.44C894.266 301.102 883.777 298.933 871.557 298.933C859.333 298.933 848.793 301.257 839.939 305.906C831.082 310.555 822.223 315.695 813.365 321.323C804.507 326.952 794.819 332.045 784.299 336.601C773.779 341.16 760.856 343.44 745.529 343.44C730.203 343.44 717.249 341.124 706.667 336.49C696.089 331.857 686.417 326.784 677.652 321.271C668.888 315.759 660.009 310.657 651.015 305.965C642.017 301.277 631.471 298.933 619.379 298.933C607.283 298.933 596.837 301.168 588.041 305.639C579.242 310.109 570.539 315.06 561.935 320.49C553.33 325.925 543.983 330.978 533.896 335.65C523.808 340.327 511.509 342.923 497 343.44C482.433 342.403 470.146 339.481 460.14 334.677C450.137 329.872 440.807 324.884 432.147 319.714C423.488 314.54 414.779 309.783 406.022 305.44C397.266 301.102 386.777 298.933 374.557 298.933C362.333 298.933 351.793 301.257 342.939 305.906C334.082 310.555 325.223 315.695 316.365 321.323C307.507 326.952 297.819 332.045 287.299 336.601C276.779 341.16 263.856 343.44 248.529 343.44C233.203 343.44 220.249 341.124 209.667 336.49C199.089 331.857 189.417 326.784 180.652 321.271C171.888 315.759 163.009 310.657 154.015 305.965C145.017 301.277 134.471 298.933 122.379 298.933C110.283 298.933 99.8367 301.168 91.041 305.639C82.2415 310.109 73.5395 315.06 64.9346 320.49C56.3296 325.925 46.9832 330.978 36.8955 335.65C26.8077 340.327 14.509 342.923 0 343.44V281.633C11.5901 280.855 21.5227 278.109 29.7969 273.394C38.0709 268.678 46.5261 263.722 55.1621 258.524C63.7943 253.327 73.3355 248.558 83.7852 244.216C94.2387 239.878 107.179 237.708 122.606 237.708C138.038 237.708 151.072 240.008 161.709 244.606C172.349 249.205 181.986 254.226 190.618 259.668C199.25 265.11 208.04 270.132 216.987 274.734C225.939 279.333 236.414 281.633 248.412 281.633C260.784 281.633 271.352 279.341 280.112 274.758C288.877 270.171 297.575 265.149 306.207 259.691C314.839 254.234 324.542 249.205 335.314 244.606C346.091 240.008 359.054 237.708 374.201 237.708C390.033 237.708 403.106 239.878 413.42 244.216C423.733 248.558 433.138 253.319 441.634 258.501C450.134 263.687 458.535 268.643 466.836 273.37C475.137 278.101 485.192 280.855 497 281.633C508.59 280.855 518.523 278.109 526.797 273.394C535.071 268.678 543.526 263.722 552.162 258.524C560.794 253.327 570.336 248.558 580.785 244.216C591.239 239.878 604.179 237.708 619.606 237.708C635.038 237.708 648.072 240.008 658.709 244.606C669.349 249.205 678.986 254.226 687.618 259.668C696.25 265.11 705.04 270.132 713.987 274.734C722.939 279.333 733.414 281.633 745.412 281.633C757.784 281.633 768.352 279.341 777.112 274.758C785.877 270.171 794.575 265.149 803.207 259.691C811.839 254.234 821.542 249.205 832.314 244.606C843.091 240.008 856.054 237.708 871.201 237.708C887.033 237.708 900.107 239.878 910.42 244.216C920.733 248.558 930.138 253.319 938.634 258.501C947.134 263.687 955.535 268.643 963.836 273.37C972.137 278.101 982.192 280.855 994 281.633C1005.59 280.855 1015.52 278.109 1023.8 273.394C1032.07 268.678 1040.53 263.722 1049.16 258.524C1057.79 253.327 1067.34 248.558 1077.79 244.216C1088.24 239.878 1101.18 237.708 1116.61 237.708C1132.04 237.708 1145.07 240.008 1155.71 244.606C1166.35 249.205 1175.99 254.226 1184.62 259.668C1193.25 265.11 1202.04 270.132 1210.99 274.734C1219.94 279.333 1230.41 281.633 1242.41 281.633C1254.78 281.633 1265.35 279.341 1274.11 274.758C1282.88 270.171 1291.57 265.149 1300.21 259.691C1308.84 254.234 1318.54 249.205 1329.31 244.606C1340.09 240.008 1353.05 237.708 1368.2 237.708ZM1368.2 119.143C1384.03 119.143 1397.11 121.378 1407.42 125.849C1417.73 130.319 1427.14 135.211 1435.63 140.524C1444.13 145.838 1452.53 150.859 1460.84 155.586C1469.14 160.317 1479.19 162.813 1491 163.073V224.881C1476.43 224.36 1464.15 221.763 1454.14 217.091C1444.14 212.414 1434.81 207.36 1426.15 201.93C1417.49 196.495 1408.78 191.544 1400.02 187.073C1391.27 182.603 1380.73 180.367 1368.41 180.367C1356.34 180.367 1345.86 182.703 1336.97 187.376C1328.09 192.048 1319.22 197.129 1310.38 202.618C1301.53 208.111 1291.84 213.194 1281.31 217.866C1270.78 222.543 1257.85 224.881 1242.52 224.881C1227.2 224.881 1214.25 222.563 1203.67 217.93C1193.09 213.296 1183.42 208.223 1174.65 202.711C1165.89 197.195 1157.01 192.093 1148.01 187.405C1139.02 182.713 1128.47 180.367 1116.38 180.367C1104.28 180.367 1093.84 182.603 1085.04 187.073C1076.24 191.544 1067.54 196.495 1058.93 201.93C1050.33 207.36 1040.98 212.414 1030.9 217.091C1020.81 221.763 1008.51 224.36 994 224.881C979.433 224.36 967.146 221.763 957.14 217.091C947.137 212.414 937.807 207.36 929.147 201.93C920.488 196.495 911.779 191.544 903.022 187.073C894.266 182.603 883.727 180.367 871.405 180.367C859.34 180.367 848.863 182.703 839.974 187.376C831.089 192.048 822.223 197.129 813.377 202.618C804.527 208.111 794.838 213.194 784.311 217.866C773.779 222.543 760.85 224.881 745.523 224.881C730.201 224.881 717.249 222.563 706.667 217.93C696.089 213.296 686.417 208.223 677.652 202.711C668.888 197.195 660.009 192.093 651.015 187.405C642.017 182.713 631.471 180.367 619.379 180.367C607.283 180.367 596.837 182.603 588.041 187.073C579.242 191.544 570.539 196.495 561.935 201.93C553.33 207.36 543.983 212.414 533.896 217.091C523.808 221.763 511.509 224.36 497 224.881C482.433 224.36 470.146 221.763 460.14 217.091C450.137 212.414 440.807 207.36 432.147 201.93C423.488 196.495 414.779 191.544 406.022 187.073C397.266 182.603 386.727 180.367 374.405 180.367C362.34 180.367 351.863 182.703 342.974 187.376C334.089 192.048 325.223 197.129 316.377 202.618C307.527 208.111 297.838 213.194 287.311 217.866C276.779 222.543 263.85 224.881 248.523 224.881C233.201 224.881 220.249 222.563 209.667 217.93C199.089 213.296 189.417 208.223 180.652 202.711C171.888 197.195 163.009 192.093 154.015 187.405C145.017 182.713 134.471 180.367 122.379 180.367C110.283 180.367 99.8367 182.603 91.041 187.073C82.2416 191.544 73.5394 196.495 64.9346 201.93C56.3296 207.36 46.9833 212.414 36.8955 217.091C26.8077 221.763 14.509 224.36 0 224.881V163.073C11.5473 162.813 21.47 160.325 29.7676 155.609C38.0611 150.894 46.5261 145.873 55.1621 140.548C63.7943 135.218 73.3355 130.319 83.7852 125.849C94.2387 121.378 107.179 119.143 122.606 119.143C138.038 119.143 151.072 121.444 161.709 126.047C172.349 130.645 181.986 135.665 190.618 141.107C199.25 146.55 208.04 151.57 216.987 156.169C225.939 160.771 236.414 163.073 248.412 163.073C260.784 163.073 271.352 160.779 280.112 156.192C288.877 151.609 297.575 146.589 306.207 141.131C314.839 135.673 324.542 130.645 335.314 126.047C346.091 121.444 359.054 119.143 374.201 119.143C390.033 119.143 403.106 121.378 413.42 125.849C423.733 130.319 433.138 135.211 441.634 140.524C450.134 145.838 458.535 150.859 466.836 155.586C475.137 160.317 485.192 162.813 497 163.073C508.547 162.813 518.47 160.325 526.768 155.609C535.061 150.894 543.526 145.873 552.162 140.548C560.794 135.218 570.336 130.319 580.785 125.849C591.239 121.378 604.179 119.143 619.606 119.143C635.038 119.143 648.072 121.444 658.709 126.047C669.349 130.645 678.986 135.665 687.618 141.107C696.25 146.55 705.04 151.57 713.987 156.169C722.939 160.771 733.414 163.073 745.412 163.073C757.784 163.073 768.352 160.779 777.112 156.192C785.877 151.609 794.575 146.589 803.207 141.131C811.839 135.673 821.542 130.645 832.314 126.047C843.091 121.444 856.054 119.143 871.201 119.143C887.033 119.143 900.107 121.378 910.42 125.849C920.733 130.319 930.138 135.211 938.634 140.524C947.134 145.838 955.535 150.859 963.836 155.586C972.137 160.317 982.192 162.813 994 163.073C1005.55 162.813 1015.47 160.325 1023.77 155.609C1032.06 150.894 1040.53 145.873 1049.16 140.548C1057.79 135.218 1067.34 130.319 1077.79 125.849C1088.24 121.378 1101.18 119.143 1116.61 119.143C1132.04 119.143 1145.07 121.444 1155.71 126.047C1166.35 130.645 1175.99 135.665 1184.62 141.107C1193.25 146.55 1202.04 151.57 1210.99 156.169C1219.94 160.771 1230.41 163.073 1242.41 163.073C1254.78 163.073 1265.35 160.779 1274.11 156.192C1282.88 151.609 1291.57 146.589 1300.21 141.131C1308.84 135.673 1318.54 130.645 1329.31 126.047C1340.09 121.444 1353.05 119.143 1368.2 119.143ZM1368.2 0C1384.03 4.57764e-05 1397.11 2.17065 1407.42 6.5127C1417.73 10.8509 1427.14 15.7109 1435.63 21.0908C1444.13 26.4669 1452.53 31.5202 1460.84 36.251C1469.14 40.9778 1479.19 43.7294 1491 44.5068V106.314C1476.43 105.797 1464.15 103.201 1454.14 98.5244C1444.14 93.852 1434.81 88.7986 1426.15 83.3643C1417.49 77.9337 1408.78 72.9831 1400.02 68.5127C1391.27 64.0425 1380.73 61.8076 1368.41 61.8076C1356.34 61.8076 1345.86 64.1439 1336.97 68.8164C1328.09 73.485 1319.22 78.566 1310.38 84.0586C1301.53 89.5473 1291.84 94.6293 1281.31 99.3057C1270.78 103.978 1257.85 106.314 1242.52 106.314C1227.2 106.314 1214.25 103.998 1203.67 99.3643C1193.09 94.7345 1183.42 89.6615 1174.65 84.1455C1165.89 78.6335 1157.01 73.5337 1148.01 68.8457C1139.02 64.1538 1128.47 61.8076 1116.38 61.8076C1104.28 61.8076 1093.84 64.0423 1085.04 68.5127C1076.24 72.983 1067.54 77.9338 1058.93 83.3643C1050.33 88.7986 1040.98 93.852 1030.9 98.5244C1020.81 103.201 1008.51 105.797 994 106.314C979.433 105.797 967.146 103.201 957.14 98.5244C947.138 93.852 937.807 88.7986 929.147 83.3643C920.488 77.9337 911.779 72.9831 903.022 68.5127C894.266 64.0425 883.727 61.8076 871.405 61.8076C859.34 61.8076 848.863 64.1439 839.974 68.8164C831.089 73.485 822.223 78.566 813.377 84.0586C804.527 89.5473 794.838 94.6293 784.311 99.3057C773.779 103.978 760.85 106.314 745.523 106.314C730.201 106.314 717.249 103.998 706.667 99.3643C696.089 94.7345 686.417 89.6615 677.652 84.1455C668.888 78.6335 660.009 73.5337 651.015 68.8457C642.017 64.1538 631.471 61.8076 619.379 61.8076C607.283 61.8076 596.837 64.0423 588.041 68.5127C579.242 72.983 570.539 77.9338 561.935 83.3643C553.33 88.7986 543.983 93.852 533.896 98.5244C523.808 103.201 511.509 105.797 497 106.314C482.433 105.797 470.146 103.201 460.14 98.5244C450.138 93.852 440.807 88.7986 432.147 83.3643C423.488 77.9337 414.779 72.9831 406.022 68.5127C397.266 64.0425 386.727 61.8076 374.405 61.8076C362.34 61.8076 351.863 64.1439 342.974 68.8164C334.089 73.485 325.223 78.566 316.377 84.0586C307.527 89.5473 297.838 94.6293 287.311 99.3057C276.779 103.978 263.85 106.314 248.523 106.314C233.201 106.314 220.249 103.998 209.667 99.3643C199.089 94.7345 189.417 89.6615 180.652 84.1455C171.888 78.6335 163.009 73.5337 154.015 68.8457C145.017 64.1538 134.471 61.8076 122.379 61.8076C110.283 61.8076 99.8367 64.0423 91.041 68.5127C82.2415 72.983 73.5395 77.9338 64.9346 83.3643C56.3297 88.7986 46.9832 93.852 36.8955 98.5244C26.8077 103.201 14.509 105.797 0 106.314V44.5068C11.5901 43.7294 21.5227 40.9404 29.7969 36.1396C38.0709 31.3351 46.5261 26.2796 55.1621 20.9736C63.7943 15.6714 73.3276 10.8509 83.7617 6.5127C94.1959 2.1707 107.116 0 122.52 0C137.927 4.57764e-05 150.971 2.36592 161.65 7.09668C172.33 11.8236 181.986 16.941 190.618 22.4492C199.25 27.9574 208.04 33.0108 216.987 37.6094C225.939 42.208 236.414 44.5068 248.412 44.5068C260.784 44.5068 271.352 42.1715 280.112 37.499C288.877 32.8226 297.604 27.7684 306.295 22.3379C314.985 16.9036 324.69 11.8235 335.408 7.09668C346.123 2.36588 359.054 0 374.201 0C390.033 4.57764e-05 403.106 2.17065 413.42 6.5127C423.733 10.8509 433.138 15.7109 441.634 21.0908C450.134 26.4669 458.535 31.5202 466.836 36.251C475.137 40.9778 485.192 43.7294 497 44.5068C508.59 43.7294 518.523 40.9404 526.797 36.1396C535.071 31.3351 543.526 26.2796 552.162 20.9736C560.794 15.6714 570.328 10.8509 580.762 6.5127C591.196 2.1707 604.116 0 619.52 0C634.927 4.57764e-05 647.971 2.36592 658.65 7.09668C669.33 11.8236 678.986 16.941 687.618 22.4492C696.25 27.9574 705.04 33.0108 713.987 37.6094C722.939 42.208 733.414 44.5068 745.412 44.5068C757.784 44.5068 768.352 42.1715 777.112 37.499C785.877 32.8226 794.604 27.7684 803.295 22.3379C811.985 16.9036 821.69 11.8235 832.408 7.09668C843.123 2.36588 856.054 0 871.201 0C887.033 4.57764e-05 900.107 2.17065 910.42 6.5127C920.733 10.8509 930.138 15.7109 938.634 21.0908C947.134 26.4669 955.535 31.5202 963.836 36.251C972.137 40.9778 982.192 43.7294 994 44.5068C1005.59 43.7294 1015.52 40.9404 1023.8 36.1396C1032.07 31.3351 1040.53 26.2796 1049.16 20.9736C1057.79 15.6714 1067.33 10.8509 1077.76 6.5127C1088.2 2.1707 1101.12 0 1116.52 0C1131.93 4.57764e-05 1144.97 2.36592 1155.65 7.09668C1166.33 11.8236 1175.99 16.941 1184.62 22.4492C1193.25 27.9574 1202.04 33.0108 1210.99 37.6094C1219.94 42.208 1230.41 44.5068 1242.41 44.5068C1254.78 44.5068 1265.35 42.1715 1274.11 37.499C1282.88 32.8226 1291.6 27.7684 1300.29 22.3379C1308.99 16.9036 1318.69 11.8235 1329.41 7.09668C1340.12 2.36588 1353.05 0 1368.2 0Z" fill="#EEEEEE"/>
</svg>
