<svg width="20" height="14" viewBox="0 0 20 14" fill="none" xmlns="http://www.w3.org/2000/svg">
<path d="M12.6377 9.64013C13.3607 8.91649 13.7222 8.03645 13.7222 7C13.7222 5.96355 13.3607 5.08351 12.6377 4.35987C11.9147 3.63624 11.0355 3.27442 10 3.27442C8.9645 3.27442 8.08527 3.63624 7.3623 4.35987C6.63932 5.08351 6.27784 5.96355 6.27784 7C6.27784 8.03645 6.63932 8.91649 7.3623 9.64013C8.08527 10.3638 8.9645 10.7256 10 10.7256C11.0355 10.7256 11.9147 10.3638 12.6377 9.64013ZM8.58634 8.41496C8.19737 8.02577 8.00288 7.55412 8.00288 7C8.00288 6.44588 8.19737 5.97423 8.58634 5.58504C8.97517 5.19571 9.44639 5.00104 10 5.00104C10.5536 5.00104 11.0248 5.19571 11.4137 5.58504C11.8026 5.97423 11.9971 6.44588 11.9971 7C11.9971 7.55412 11.8026 8.02577 11.4137 8.41496C11.0248 8.80429 10.5536 8.99896 10 8.99896C9.44639 8.99896 8.97517 8.80429 8.58634 8.41496ZM3.97642 12.0548C2.18445 10.758 0.858977 9.07304 0 7C0.858977 4.92696 2.18445 3.24203 3.97642 1.94522C5.76839 0.648407 7.77625 0 10 0C12.2238 0 14.2316 0.648407 16.0236 1.94522C17.8155 3.24203 19.141 4.92696 20 7C19.141 9.07304 17.8155 10.758 16.0236 12.0548C14.2316 13.3516 12.2238 14 10 14C7.77625 14 5.76839 13.3516 3.97642 12.0548Z" fill="#CB3F05"/>
</svg>
