<svg width="1491" height="462" viewBox="0 0 1491 462" fill="none" xmlns="http://www.w3.org/2000/svg">
<path d="M1368.2 0C1384.03 4.18476e-05 1397.11 2.17066 1407.42 6.5127C1417.73 10.8509 1427.14 15.7109 1435.63 21.0908C1444.13 26.4669 1452.53 31.5202 1460.84 36.251C1469.14 40.9778 1479.19 43.7294 1491 44.5068V462C1476.43 461.483 1464.15 458.931 1454.14 454.344C1450.37 452.616 1446.69 450.834 1443.11 449H1294.47C1290.27 451.121 1285.9 453.163 1281.36 455.125C1270.75 459.708 1257.78 462 1242.45 462C1227.13 462 1214.2 459.708 1203.68 455.125C1199.18 453.163 1194.83 451.121 1190.63 449H1041.99C1038.4 450.834 1034.7 452.616 1030.9 454.344C1020.81 458.931 1008.51 461.483 994 462C979.433 461.483 967.146 458.931 957.14 454.344C953.368 452.616 949.693 450.834 946.112 449H797.472C793.267 451.121 788.895 453.163 784.356 455.125C773.747 459.708 760.779 462 745.453 462C730.127 462 717.202 459.708 706.679 455.125C702.177 453.163 697.829 451.121 693.635 449H544.99C541.397 450.834 537.699 452.616 533.896 454.344C523.808 458.931 511.509 461.483 497 462C482.433 461.483 470.146 458.931 460.14 454.344C456.368 452.616 452.693 450.834 449.112 449H300.472C296.267 451.121 291.895 453.163 287.356 455.125C276.747 459.708 263.779 462 248.453 462C233.127 462 220.202 459.708 209.679 455.125C205.177 453.163 200.829 451.121 196.635 449H47.9902C44.3974 450.834 40.6992 452.616 36.8955 454.344C26.8077 458.931 14.509 461.483 0 462V44.5068C11.5901 43.7294 21.5227 40.9404 29.7969 36.1396C38.0709 31.3351 46.5261 26.2797 55.1621 20.9736C63.7943 15.6714 73.3276 10.8509 83.7617 6.5127C94.1959 2.1707 107.116 0 122.52 0C137.927 4.52877e-05 150.971 2.36592 161.65 7.09668C172.33 11.8236 181.986 16.941 190.618 22.4492C199.25 27.9574 208.04 33.0108 216.987 37.6094C225.939 42.208 236.414 44.5068 248.412 44.5068C260.784 44.5068 271.352 42.1715 280.112 37.499C288.877 32.8226 297.604 27.7684 306.295 22.3379C314.985 16.9036 324.69 11.8235 335.408 7.09668C346.123 2.36587 359.054 0 374.201 0C390.033 4.18476e-05 403.106 2.17066 413.42 6.5127C423.733 10.8509 433.138 15.7109 441.634 21.0908C450.134 26.4669 458.535 31.5202 466.836 36.251C475.137 40.9778 485.192 43.7294 497 44.5068C508.59 43.7294 518.523 40.9404 526.797 36.1396C535.071 31.3351 543.526 26.2797 552.162 20.9736C560.794 15.6714 570.328 10.8509 580.762 6.5127C591.196 2.1707 604.116 0 619.52 0C634.927 4.52877e-05 647.971 2.36592 658.65 7.09668C669.33 11.8236 678.986 16.941 687.618 22.4492C696.25 27.9574 705.04 33.0108 713.987 37.6094C722.939 42.208 733.414 44.5068 745.412 44.5068C757.784 44.5068 768.352 42.1715 777.112 37.499C785.877 32.8226 794.604 27.7684 803.295 22.3379C811.985 16.9036 821.69 11.8235 832.408 7.09668C843.123 2.36587 856.054 0 871.201 0C887.033 4.18476e-05 900.106 2.17066 910.42 6.5127C920.733 10.8509 930.138 15.7109 938.634 21.0908C947.134 26.4669 955.535 31.5202 963.836 36.251C972.137 40.9778 982.192 43.7294 994 44.5068C1005.59 43.7294 1015.52 40.9404 1023.8 36.1396C1032.07 31.3351 1040.53 26.2797 1049.16 20.9736C1057.79 15.6714 1067.33 10.8509 1077.76 6.5127C1088.2 2.1707 1101.12 0 1116.52 0C1131.93 4.52877e-05 1144.97 2.36592 1155.65 7.09668C1166.33 11.8236 1175.99 16.941 1184.62 22.4492C1193.25 27.9574 1202.04 33.0108 1210.99 37.6094C1219.94 42.208 1230.41 44.5068 1242.41 44.5068C1254.78 44.5068 1265.35 42.1715 1274.11 37.499C1282.88 32.8226 1291.6 27.7684 1300.29 22.3379C1308.99 16.9036 1318.69 11.8235 1329.41 7.09668C1340.12 2.36587 1353.05 0 1368.2 0Z" fill="#EEEEEE"/>
</svg>
